<svg width="22" height="23" viewBox="0 0 22 23" fill="none" xmlns="http://www.w3.org/2000/svg">
<path d="M7.99997 10.2214L11.7778 13.9992M6.97485 19.9741C5.60801 21.3409 3 20.9992 1 20.9992C2.0251 18.9992 0.658265 16.3912 2.0251 15.0243C3.39194 13.6575 5.60801 13.6575 6.97485 15.0243C8.34168 16.3912 8.34168 18.6072 6.97485 19.9741ZM10.9216 14.9238L20.0587 5.05574C20.8635 4.18657 20.8375 2.83679 19.9999 1.9992C19.1624 1.1616 17.8126 1.13565 16.9434 1.94044L7.07534 11.0775C6.5654 11.5497 6.31043 11.7858 6.16173 12.0376C5.80514 12.6413 5.79079 13.3877 6.12391 14.0048C6.26283 14.2621 6.50853 14.5078 6.99995 14.9992C7.49136 15.4906 7.73707 15.7363 7.99438 15.8752C8.6114 16.2083 9.35781 16.194 9.96157 15.8374C10.2134 15.6887 10.4494 15.4337 10.9216 14.9238Z" stroke="white" stroke-width="2" stroke-linecap="round" stroke-linejoin="round"/>
</svg>
