<svg width="21" height="21" viewBox="0 0 21 21" fill="none" xmlns="http://www.w3.org/2000/svg">
<path d="M19 7.5V5.8C19 4.11984 19 3.27976 18.673 2.63803C18.3854 2.07354 17.9265 1.6146 17.362 1.32698C16.7202 1 15.8802 1 14.2 1H5.8C4.11984 1 3.27976 1 2.63803 1.32698C2.07354 1.6146 1.6146 2.07354 1.32698 2.63803C1 3.27976 1 4.11984 1 5.8V14.2C1 15.8802 1 16.7202 1.32698 17.362C1.6146 17.9265 2.07354 18.3854 2.63803 18.673C3.27976 19 4.11984 19 5.8 19H7.5M15.3862 15.7113L13.6879 18.8653C13.4103 19.3808 13.2715 19.6386 13.1023 19.7059C12.9555 19.7643 12.7896 19.7498 12.6551 19.6668C12.5001 19.5712 12.4081 19.2933 12.2241 18.7375L9.5004 10.5113C9.33923 10.0245 9.25865 9.78117 9.31659 9.61909C9.36702 9.47803 9.47803 9.36702 9.61909 9.31659C9.78117 9.25865 10.0245 9.33923 10.5113 9.5004L18.7374 12.2241C19.2933 12.4082 19.5712 12.5002 19.6668 12.6551C19.7498 12.7897 19.7642 12.9555 19.7058 13.1024C19.6386 13.2715 19.3808 13.4103 18.8652 13.6879L15.7113 15.3862C15.6328 15.4285 15.5935 15.4497 15.5591 15.4768C15.5286 15.501 15.501 15.5286 15.4768 15.5591C15.4497 15.5935 15.4285 15.6328 15.3862 15.7113Z" stroke="black" stroke-width="2" stroke-linecap="round" stroke-linejoin="round"/>
</svg>
