<svg width="85" height="136" viewBox="0 0 85 136" fill="none" xmlns="http://www.w3.org/2000/svg">
<path d="M43.1038 114.178C44.8598 115.41 44.635 115.144 43.1038 115.34C41.5726 115.536 40.7719 115.592 40.5893 116.586C40.4395 117.396 40.2088 118.188 39.901 118.952C39.8296 118.899 39.7628 118.838 39.7043 118.77C36.8948 114.654 39.0722 115.718 33.9167 115.298C32.8912 115.298 35.7148 114.346 36.5436 112.497C36.8527 111.811 35.4057 109.249 36.2205 109.697C38.6929 110.999 37.8922 110.523 38.2012 110.705C39.1284 111.279 41.8817 109.025 42.9353 108.717C43.2584 110.985 40.6596 112.385 43.1038 114.178Z" fill="#FFEAB6"/>
<path d="M63.1038 129.129C64.8598 130.361 64.635 130.095 63.1038 130.291C61.5726 130.487 60.7719 130.543 60.5893 131.537C60.4395 132.347 60.2088 133.139 59.901 133.903C59.8296 133.85 59.7628 133.789 59.7043 133.721C56.8948 129.605 59.0722 130.669 53.9167 130.249C52.8912 130.249 55.7148 129.297 56.5436 127.448C56.8527 126.762 55.4057 124.2 56.2205 124.648C58.6929 125.95 57.8922 125.474 58.2012 125.656C59.1284 126.23 61.8817 123.976 62.9353 123.668C63.2584 125.936 60.6596 127.336 63.1038 129.129Z" fill="#FFEAB6"/>
<path d="M82.6344 74.5692C83.3227 74.8212 81.2296 75.4233 80.3727 76.0674C78.968 77.1035 80.2884 77.9717 80.1761 79.4278C79.0804 78.9658 77.8442 76.6275 76.2146 76.6275C73.2787 77.6076 73.0961 78.0277 72.5763 78.0277C72.7449 76.9775 75.2173 74.8492 73.8125 73.7151C73.2646 73.295 71.902 71.2928 72.5904 71.4468C75.3156 72.0769 75.3015 72.2029 75.8213 71.8388C78.5606 69.9626 78.6308 67.0782 79.1365 71.0267C79.572 74.5692 78.687 73.169 82.6344 74.5692Z" fill="#FFEAB6"/>
<path d="M79.2194 28.4478C79.1491 28.5459 79.0929 28.6719 78.9946 28.7139C75.4546 30.5341 75.2158 30.3101 75.4265 31.5143C75.9603 34.8327 75.8339 34.3146 75.7496 34.8887C71.9989 31.5003 73.4879 31.9343 72.9401 31.8363C71.9006 31.6823 69.962 32.8444 68.0936 33.2365C67.4475 33.2365 67.7003 33.0965 69.3158 30.4361C71.0998 27.5377 62.4184 24.1073 69.9479 26.2355C71.3527 26.6416 71.0998 26.4456 73.6565 23.0151C74.4713 21.909 73.9515 26.9076 75.8479 27.0757C76.5082 27.0757 77.4213 27.8598 78.9244 28.1958C79.0356 28.2645 79.1351 28.3495 79.2194 28.4478Z" fill="#FFEAB6"/>
<path d="M34.5687 43.0823C38.7047 43.6447 39.815 43.6091 37.472 44.9016C35.7962 44.9433 35.5989 44.967 34.1328 43.3002C33.9724 43.0821 34.2818 43.0429 34.5687 43.0823Z" fill="#E6FCFF"/>
<path d="M41.845 40.501C42.0757 40.4394 42.1057 40.6053 42.0434 40.7524C41.6871 41.6448 41.3438 42.9107 40.1209 42.527C36.9381 41.5071 31.4317 42.1225 32.2764 39.4761C32.6262 38.3969 32.4213 39.5823 35.8713 40.0815C39.6082 40.62 40.9649 40.852 41.845 40.501Z" fill="#E6FCFF"/>
<path d="M42.1728 37.2818C43.0224 37.1419 42.401 38.8879 41.0775 39.2124C38.6893 39.0385 31.4612 38.3887 32.8941 36.4694C33.0675 36.2492 32.8354 35.8183 33.1547 35.762C33.6975 35.617 33.131 36.3772 37.1122 36.8504C41.0934 37.3237 41.4382 37.3621 42.1728 37.2818Z" fill="#E6FCFF"/>
<path d="M33.6102 32.5371C42.2561 36.0263 44.3566 32.4792 42.8618 35.5747C42.582 36.1567 40.7935 35.7792 40.1383 35.7222C36.9473 35.4293 31.6887 35.1812 33.6102 32.5371Z" fill="#E6FCFF"/>
<path d="M58.1486 13.1273C58.5841 13.2533 58.261 14.2755 57.8677 14.0654C56.3786 13.3093 57.6289 12.9593 58.1486 13.1273Z" fill="#FFD152"/>
<path d="M34.7105 17.9656C34.1278 18.7735 33.4723 17.6874 33.9244 17.4217C34.0763 17.3377 34.4994 17.7755 34.7105 17.9656Z" fill="#FFD152"/>
<path d="M36.8516 5.53599C53.6381 0.951242 63.1873 22.029 46.245 28.6848C44.0381 29.5642 43.4294 29.0309 42.9674 30.1255C42.1755 32.265 43.2214 32.8554 42.1038 32.864C39.8252 32.8904 37.5566 32.5569 35.3812 31.8762C33.378 31.2951 36.3745 30.1614 34.959 28.4665C33.5436 26.7716 33.8991 28.2567 31.8844 26.3885C22.5691 17.7581 29.6089 7.04998 36.8516 5.53599ZM49.8692 20.527C51.2913 22.4085 52.6092 16.7076 50.3821 16.5921C48.155 16.4766 47.9977 18.0552 47.6502 18.061C44.3132 18.1985 46.3761 18.0824 44.307 17.6348C43.3494 17.4267 42.9572 18.6186 42.0207 17.8395C40.5342 16.584 41.7221 17.9192 36.15 17.2621C35.7608 17.221 35.44 16.7849 35.0813 16.5328C34.7227 16.2807 34.302 16.393 33.7636 16.3918C32.1927 16.391 32.155 19.6047 34.5671 19.3808C34.8114 19.3156 34.9878 19.2685 35.0191 19.7095C35.0961 22.0517 38.5929 23.1037 38.2831 24.3316C37.888 26.0944 37.7621 27.907 37.9104 29.7077C37.9517 30.1315 38.2599 29.8173 38.4418 29.8991C39.1426 30.2338 38.7305 27.6187 39.4578 24.4818C39.9575 22.3914 36.5901 21.3338 36.2362 19.7468C35.7759 17.7099 36.8719 18.6493 38.8736 18.738C39.9921 18.7872 40.6919 18.2524 41.1586 18.8525C41.4401 19.1646 41.8249 19.3657 42.2417 19.4192C42.6596 19.4726 43.0818 19.375 43.4329 19.1438C44.594 18.4858 44.5265 19.5331 46.0756 19.4528C47.6246 19.3724 47.5929 19.3084 47.7383 19.8494C47.7892 20.0388 47.8438 20.2417 47.6276 20.3574C46.9937 20.7809 46.4156 21.2811 45.9047 21.8467C45.2294 22.4185 45.4014 21.7057 44.3378 22.8885C42.7356 24.6646 42.8467 23.7796 42.2034 24.6327C41.141 26.0906 39.0093 30.0085 40.1591 30.4987C41.3089 30.9889 40.8939 29.0123 42.348 26.7395C43.8022 24.4667 43.7327 25.3984 44.2641 24.7782C45.3955 23.5772 45.5528 23.4048 45.7527 23.3369C46.8941 22.9306 47.5279 21.7176 48.3881 21.4009C49.5531 20.9738 48.961 20.0157 49.2406 20.028C49.5203 20.0403 49.7124 20.3224 49.8692 20.527Z" fill="#FFD152"/>
<path d="M75.0684 92.9537C67.0864 95.5208 62.8957 104.615 60.6542 101.214C58.1095 97.2651 56.8844 93.6772 58.2659 89.7072C58.6773 88.6197 58.4872 87.3362 57.287 87.3341C56.2921 87.3845 55.2944 87.3695 54.3013 87.2895C50.9938 86.9445 52.1429 84.2638 50.2689 85.0111C49.5618 85.187 48.8712 85.4286 48.2091 85.7334C47.6267 85.9635 47.9213 85.8198 47.2047 84.6976C46.4882 83.5754 44.6558 84.054 44.6349 84.7045C44.6783 84.8809 44.7793 85.0371 44.9225 85.1481C45.0658 85.259 45.2435 85.3183 45.4247 85.3156C46.3291 85.2663 46.1698 86.0445 46.7206 86.9698C47.6337 88.5249 49.9804 85.4563 50.8085 86.6803C52.1926 88.6968 53.2155 88.5724 56.4477 88.6797C58.4452 88.757 53.559 91.3951 58.3956 100.081C61.0653 104.93 62.137 104.121 67.5552 99.1237C69.538 97.295 73.147 94.4613 75.6239 93.9855C76.6453 93.7857 77.7171 93.8892 79.2011 96.078C82.6776 101.215 80.2393 101.271 79.0714 102.494C78.8672 102.716 79.2539 103.4 79.6325 103.153C82.0045 101.606 81.318 102.111 82.0381 101.199C82.7019 97.7377 78.8948 91.728 75.0684 92.9537Z" fill="#3A3A3A"/>
<path d="M80.3022 69.7805C80.1898 69.0804 79.965 68.3802 79.8245 67.6941C79.8081 67.5283 79.7414 67.3712 79.6337 67.2438C79.526 67.1164 79.382 67.0244 79.2205 66.9801C78.6726 66.8121 78.6024 67.12 76.72 69.3463C75.0484 71.3205 76.0457 70.9845 71.9438 69.9764C71.7179 70.0165 71.5037 70.1063 71.3164 70.2396C71.1291 70.3728 70.9734 70.546 70.8622 70.7465C70.5812 71.1525 70.6093 71.3065 71.8595 73.3228C72.9272 75.045 73.2643 74.625 72.7586 75.3671C70.1036 79.3296 68.9095 80.6318 73.7981 78.8536C76.6076 77.8454 76.4953 77.6914 76.9026 78.0975C78.7991 79.9877 81.4119 83.1801 81.5664 80.5058C81.6332 79.4567 81.4704 78.4056 81.0888 77.4254C80.8922 76.4172 84.7552 75.8992 84.98 74.457C84.9987 74.3945 85.0046 74.3287 84.9976 74.2639C84.9894 74.199 84.9695 74.1363 84.9355 74.0799C84.9027 74.0234 84.8594 73.9743 84.8056 73.9356C84.7529 73.8969 84.6932 73.8695 84.6288 73.8549C79.2767 71.9646 80.9343 73.813 80.3022 69.7805ZM80.3724 76.0393C78.9676 77.0754 80.2881 77.9434 80.1757 79.3996C79.08 78.9376 77.8438 76.5993 76.2143 76.5993C73.2784 77.5794 73.0957 77.9994 72.576 77.9994C72.7445 76.9493 75.2169 74.8211 73.8122 73.687C73.2643 73.2669 71.9017 71.2645 72.59 71.4186C75.3153 72.0486 75.3012 72.1747 75.821 71.8106C78.5602 69.9344 78.6305 67.05 79.1362 70.9985C79.5717 74.555 78.6867 73.0988 82.6341 74.527C83.2802 74.793 81.2574 75.3952 80.3724 76.0393Z" fill="#3A3A3A"/>
<path d="M62.7699 47.013C62.8823 52.6138 66.4083 55.4141 60.5083 54.658C51.4616 53.4819 49.6495 51.3116 50.5064 57.8645C50.6188 58.7466 50.6609 58.4666 46.2921 60.2308C44.1007 61.1269 45.0981 62.2331 46.2921 61.771C50.2816 60.1468 52.0376 59.9088 51.9112 58.1725C51.6302 55.1061 51.2369 54.56 52.4028 54.7561C60.2835 56.0162 61.618 56.3103 63.0369 56.1562C68.5716 55.5682 61.5197 46.789 65.2985 44.9547C67.9535 43.6386 68.8385 45.7388 81.5797 50.7935C82.2821 51.0736 82.9844 51.3536 83.2092 50.6955C83.434 50.0374 82.7878 49.9954 82.4366 49.8554C69.7937 44.6887 71.0861 44.4367 68.389 43.5546C67.7955 43.2777 67.1423 43.1525 66.4879 43.1902C65.8335 43.2278 65.199 43.4272 64.6418 43.7704C64.0846 44.1136 63.621 44.5896 63.2944 45.1558C62.9678 45.7218 62.7875 46.3601 62.7699 47.013Z" fill="#3A3A3A"/>
<path d="M68.2213 29.8598C67.1678 31.5821 64.7235 35.3346 66.9851 34.7745C67.828 34.5785 69.4435 34.2704 69.7946 34.1304C71.9439 33.4023 72.0142 33.1083 72.3092 33.4163C75.1187 36.2167 77.1275 39.2831 76.987 34.1584C76.9027 31.7501 76.3689 31.358 77.0573 31.092C77.9703 30.7 79.7825 29.6918 80.2882 29.5658C82.0161 29.0477 82.1004 27.9276 81.3558 27.5915C80.6113 27.2555 78.5463 26.8634 77.268 26.3174C75.2311 25.4072 76.102 26.6534 74.7956 21.5007C74.7652 21.3474 74.6867 21.2077 74.5708 21.1015C74.4561 20.9954 74.3098 20.9283 74.1541 20.9096C73.9984 20.8909 73.8404 20.9219 73.7034 20.9978C73.5664 21.0738 73.4576 21.191 73.3908 21.3327C73.2223 21.5567 72.6323 22.3968 70.8342 25.0292C70.4127 25.6593 66.3811 23.545 65.7208 24.3291C64.0632 26.2474 68.7692 28.9637 68.2213 29.8598ZM69.907 26.3034C71.3118 26.7094 71.0589 26.5134 73.6156 23.0829C74.4304 21.9768 73.9106 26.9754 75.807 27.1435C76.4532 27.1435 77.3803 27.9276 78.8834 28.2636C79.004 28.3073 79.1176 28.3686 79.2206 28.4456C79.1504 28.5437 79.0942 28.6697 78.9958 28.7117C75.4558 30.5319 75.217 30.3079 75.4277 31.5121C75.9615 34.8305 75.8351 34.3124 75.7508 34.8865C72.0001 31.4981 73.4892 31.9321 72.9413 31.8341C71.9018 31.6801 69.9632 32.8422 68.0949 33.2343C67.4487 33.2343 67.7016 33.0943 69.317 30.4339C71.0589 27.5635 62.3775 24.1611 69.907 26.3034Z" fill="#3A3A3A"/>
<path d="M32.8788 43.0679C32.9597 43.6124 33.1544 44.1337 33.4502 44.5984C33.7449 45.0635 34.1355 45.4615 34.5935 45.7678C35.0527 46.0737 35.5701 46.2809 36.1143 46.3756C36.6585 46.4703 37.2156 46.451 37.7519 46.3181C39.7802 45.9648 40.1263 44.0604 40.9162 44.0234C42.6725 43.9023 43.5078 41.7077 43.2094 40.3813C43.024 39.6916 43.416 39.094 43.5092 38.3588C43.6024 37.6236 43.1369 37.2986 43.4606 37.0962C43.8839 36.6016 44.1725 36.0068 44.2991 35.3689C44.4257 34.731 44.3854 34.0714 44.1829 33.4533C44.1356 33.2774 44.4297 32.5321 43.8193 32.1008C43.6916 32.0044 43.9566 31.1509 44.0361 31.0137C44.1155 30.8765 57.3095 28.4544 56.5251 16.5019C55.3784 -0.96374 26.8578 -0.536453 26.161 16.7257C25.7523 26.0252 34.0297 28.6851 33.8454 29.6766C33.3535 32.2287 32.4043 31.511 32.2627 32.607C31.8498 35.399 32.8517 34.7981 32.3518 35.265C30.667 36.7876 32.0833 37.7285 31.5322 38.383C31.1072 38.9121 30.9026 39.5845 30.9629 40.2597C31.022 40.9351 31.3407 41.5616 31.8523 42.0085C32.5487 42.4893 32.8565 42.552 32.8788 43.0679ZM37.4724 44.8997C35.7966 44.9414 35.5994 44.9651 34.1333 43.2982C33.9457 43.0874 34.2551 43.0482 34.542 43.0876C38.7015 43.6292 39.8118 43.5936 37.4724 44.8997ZM31.8309 26.4022C22.5301 17.8259 29.5418 7.06731 36.7981 5.5497C53.5845 0.964948 63.1338 22.0428 46.1914 28.6986C43.9846 29.5779 43.3758 29.0446 42.9139 30.1392C42.1219 32.2787 43.1678 32.8691 42.0503 32.8777C39.7705 32.9044 37.5018 32.5709 35.3276 31.89C33.3244 31.3088 36.3209 30.1751 34.9054 28.4802C33.49 26.7853 33.8998 28.2559 31.8309 26.4022ZM33.5566 32.5514C42.2025 36.0406 44.303 32.4935 42.8082 35.5889C42.5284 36.171 40.7399 35.7934 40.0847 35.7365C36.948 35.429 31.6894 35.181 33.6109 32.5369L33.5566 32.5514ZM32.8392 36.4829C33.0127 36.2626 32.7805 35.8318 33.0999 35.7755C33.6426 35.6305 33.0762 36.3906 37.0574 36.8639C41.0385 37.3372 41.3943 37.4161 42.118 37.2953C42.8418 37.1745 42.4547 38.8724 41.0905 39.2077C38.6888 39.0374 31.4742 38.384 32.8935 36.4684L32.8392 36.4829ZM32.2095 39.5503C32.5593 38.4711 32.3544 39.6565 35.8044 40.1557C39.545 40.7077 40.8981 40.9262 41.7374 40.586C41.9681 40.5244 41.9981 40.6904 41.9358 40.8374C41.5795 41.7299 41.2363 42.9957 40.0133 42.6121C36.8729 41.4794 31.4317 42.1208 32.2764 39.4744L32.2095 39.5503Z" fill="#3A3A3A"/>
<path d="M44.0441 113.28C42.9484 112.58 43.3698 112.496 43.6086 111.46C44.5779 107.259 44.5358 107.553 44.4796 107.259C44.4726 107.141 44.4328 107.027 44.3649 106.929C44.297 106.831 44.2033 106.755 44.0944 106.707C43.9856 106.659 43.8662 106.642 43.7479 106.658C43.6297 106.675 43.5185 106.722 43.426 106.797C42.0213 107.903 40.4198 108.561 38.987 109.598C38.3267 110.046 36.1072 107.805 35.6015 108.001C34.857 108.309 34.3091 108.673 34.5479 109.584C35.5453 113.182 35.2363 112.804 34.7165 113.14C33.1853 114.12 31.907 114.54 32.0053 115.786C32.0053 116.795 35.0677 116.725 36.2196 116.739C37.3715 116.753 37.1327 117.243 37.526 117.887C39.282 120.771 40.3355 122.437 41.2065 119.161C41.9651 116.444 41.0239 116.739 45.6877 116.584C47.6824 116.43 46.1793 114.638 44.0441 113.28ZM43.0467 115.31C41.4032 115.52 40.7148 115.562 40.5322 116.556C40.3824 117.366 40.1518 118.159 39.8439 118.923C39.7713 118.869 39.7057 118.808 39.6472 118.741C36.8377 114.624 39.0151 115.688 33.8596 115.268C32.8341 115.268 35.6577 114.316 36.4865 112.468C36.7955 111.782 35.3486 109.219 36.1634 109.668C38.6358 110.97 37.8351 110.494 38.1441 110.676C39.0712 111.25 41.8246 108.995 42.8781 108.687C43.2574 110.998 40.5884 112.398 43.1029 114.162C44.8729 115.38 44.6341 115.114 43.0467 115.31Z" fill="#3A3A3A"/>
<path d="M64.0441 128.231C62.9484 127.531 63.3698 127.447 63.6086 126.411C64.5779 122.21 64.5358 122.504 64.4796 122.21C64.4726 122.093 64.4328 121.978 64.3649 121.88C64.297 121.782 64.2033 121.706 64.0944 121.658C63.9856 121.611 63.8662 121.593 63.7479 121.609C63.6297 121.626 63.5185 121.674 63.426 121.748C62.0213 122.854 60.4198 123.513 58.987 124.549C58.3267 124.997 56.1072 122.756 55.6015 122.952C54.857 123.261 54.3091 123.625 54.5479 124.535C55.5453 128.133 55.2363 127.755 54.7165 128.091C53.1853 129.071 51.907 129.491 52.0053 130.738C52.0053 131.746 55.0677 131.676 56.2196 131.69C57.3715 131.704 57.1327 132.194 57.526 132.838C59.282 135.722 60.3355 137.388 61.2065 134.112C61.9651 131.396 61.0239 131.69 65.6877 131.536C67.6824 131.382 66.1793 129.589 64.0441 128.231ZM63.0467 130.261C61.4032 130.472 60.7148 130.514 60.5322 131.508C60.3824 132.317 60.1518 133.11 59.8439 133.874C59.7713 133.82 59.7057 133.76 59.6472 133.692C56.8377 129.575 59.0151 130.64 53.8596 130.219C52.8341 130.219 55.6577 129.267 56.4865 127.419C56.7955 126.733 55.3486 124.171 56.1634 124.619C58.6358 125.921 57.8351 125.445 58.1441 125.627C59.0712 126.201 61.8246 123.947 62.8781 123.639C63.2574 125.949 60.5884 127.349 63.1029 129.113C64.8729 130.331 64.6341 130.065 63.0467 130.261Z" fill="#3A3A3A"/>
<path d="M34.6357 19.3631C34.8799 19.2978 35.0563 19.2507 35.0876 19.6917C35.1646 22.034 38.6615 23.086 38.3516 24.3139C37.9554 26.0769 37.8306 27.8893 37.979 29.6899C38.0202 30.1138 38.3284 29.7995 38.5103 29.8814C39.2111 30.2161 38.799 27.6009 39.5264 24.464C40.0261 22.3736 36.6586 21.3161 36.3047 19.7291C35.8444 17.6921 36.9404 18.6315 38.9422 18.7202C40.0607 18.7694 40.7604 18.2346 41.2271 18.8348C41.5086 19.1469 41.8923 19.3482 42.3102 19.4015C42.7282 19.4549 43.1503 19.3572 43.5014 19.1261C44.6625 18.4681 44.595 19.5153 46.1441 19.435C47.6932 19.3547 47.6614 19.2907 47.8068 19.8317C47.8577 20.021 47.9123 20.2239 47.6961 20.3396C47.0623 20.7632 46.4841 21.2633 45.9732 21.829C45.298 22.4007 45.4699 21.688 44.4063 22.8708C42.8041 24.6468 42.9152 23.7619 42.272 24.615C41.2096 26.0729 39.0778 29.9907 40.2276 30.4809C41.3774 30.9711 40.9624 28.9946 42.4166 26.7217C43.8707 24.4489 43.8012 25.3807 44.3326 24.7604C45.464 23.5595 45.6213 23.387 45.8212 23.3192C46.9627 22.9128 47.5964 21.6999 48.4566 21.3832C49.6216 20.956 49.0295 19.998 49.3092 20.0103C49.5888 20.0226 49.6579 20.2795 49.8147 20.4841C51.2403 22.3792 52.5546 16.6647 50.3275 16.5492C48.1005 16.4337 47.9431 18.0123 47.5956 18.0181C44.2586 18.1556 46.3216 18.0395 44.2525 17.5919C43.2949 17.3838 42.9026 18.5757 41.9661 17.7967C40.4796 16.5411 41.6675 17.8764 36.0954 17.2192C35.7062 17.1782 35.3854 16.742 35.0268 16.4899C34.6681 16.2378 34.2475 16.3501 33.7091 16.349C32.1934 16.3914 32.1411 19.5509 34.6357 19.3631ZM50.0495 17.8411C50.5028 17.8505 50.4562 18.9212 50.0217 18.8198C48.387 18.4736 49.5038 17.8129 50.0495 17.8411ZM33.9384 17.4184C34.1012 17.3749 34.5134 17.7722 34.7245 17.9622C34.1418 18.7702 33.4872 17.7418 33.9248 17.422L33.9384 17.4184Z" fill="#3A3A3A"/>
<path d="M16.7522 44.5044C16.0688 43.8338 13.82 42.3485 14.8318 40.113C15.6354 38.3053 16.4465 37.6109 15.8428 36.0077C15.3321 34.6443 14.5639 34.9566 13.9939 33.5988C12.2081 29.1548 11.956 30.472 12.8816 27.2402C15.3078 18.5631 7.33743 20.8686 8.69352 22.9269C9.33012 23.9401 10.2934 23.7881 9.76081 22.7152C9.47731 22.1555 12.7883 21.4106 12.1106 24.9369C11.4764 28.1905 10.563 29.2727 11.6124 31.1514C12.6617 33.0302 12.8437 34.8131 14.3011 35.9565C15.3199 36.7939 14.5099 37.707 13.824 38.9763C13.347 40.0345 13.2494 41.2247 13.5484 42.3461C13.8474 43.4675 14.5246 44.452 15.4659 45.1349C17.4346 46.7167 18.3268 46.0345 16.7522 44.5044Z" fill="#3A3A3A"/>
<path d="M20.0521 134.03C19.5659 133.206 17.7788 131.192 19.3361 129.293C20.5812 127.754 21.5449 127.292 21.3776 125.588C21.2379 124.139 20.4148 124.243 20.2164 122.785C19.644 118.032 19.0588 119.239 20.7912 116.356C25.3856 108.599 17.0883 108.772 17.8644 111.11C18.2165 112.253 19.1865 112.354 18.9503 111.18C18.8216 110.567 22.2133 110.7 20.6439 113.932C19.1873 116.911 18.0242 117.721 18.5506 119.807C19.077 121.892 18.7903 123.661 19.9016 125.141C20.6685 126.213 19.6492 126.886 18.6574 127.935C17.9221 128.835 17.5191 129.959 17.5171 131.12C17.5151 132.28 17.9138 133.406 18.646 134.308C20.1375 136.343 21.1763 135.914 20.0521 134.03Z" fill="#3A3A3A"/>
</svg>
