<svg width="22" height="22" viewBox="0 0 22 22" fill="none" xmlns="http://www.w3.org/2000/svg">
<path d="M20 20.0003H12M1.5 20.5003L7.04927 18.366C7.40421 18.2295 7.58168 18.1612 7.74772 18.0721C7.8952 17.9929 8.0358 17.9015 8.16804 17.7989C8.31692 17.6834 8.45137 17.5489 8.72028 17.28L20 6.0003C21.1046 4.89574 21.1046 3.10487 20 2.0003C18.8955 0.895734 17.1046 0.895732 16 2.0003L4.72028 13.28C4.45138 13.5489 4.31692 13.6834 4.20139 13.8323C4.09877 13.9645 4.0074 14.1051 3.92823 14.2526C3.83911 14.4186 3.77085 14.5961 3.63433 14.951L1.5 20.5003ZM1.5 20.5003L3.55812 15.1493C3.7054 14.7663 3.77903 14.5749 3.90534 14.4872C4.01572 14.4105 4.1523 14.3816 4.2843 14.4068C4.43533 14.4356 4.58038 14.5807 4.87048 14.8708L7.12957 17.1299C7.41967 17.4199 7.56472 17.565 7.59356 17.716C7.61877 17.848 7.58979 17.9846 7.51314 18.095C7.42545 18.2213 7.23399 18.2949 6.85107 18.4422L1.5 20.5003Z" stroke="white" stroke-width="2" stroke-linecap="round" stroke-linejoin="round"/>
</svg>
