<svg xmlns="http://www.w3.org/2000/svg" width="300" height="267" viewBox="0 0 300 267" fill="none">
  <path fill-rule="evenodd" clip-rule="evenodd" d="M150.983 0.0122952C175.757 -0.531204 197.434 17.0403 215.839 33.5888C232.179 48.2813 236.56 71.1828 249.704 88.7784C265.042 109.311 300.006 120.024 299.528 145.624C299.048 171.394 262.048 179.886 247.606 201.261C234.546 220.59 240.23 253.217 219.526 264.029C198.604 274.956 174.595 252.265 150.983 251.722C128.143 251.196 106.114 267.506 84.2438 260.914C61.2145 253.973 44.1908 234.67 30.037 215.267C14.8827 194.493 1.4165 171.283 0.141103 145.624C-1.15798 119.489 6.51941 92.3094 22.9096 71.8763C38.5778 52.3433 65.8958 48.6642 87.7549 36.3988C109.33 24.2929 126.235 0.555249 150.983 0.0122952Z" fill="#FFCA70"/>
</svg>