<svg width="32" height="32" viewBox="0 0 32 32" fill="none" xmlns="http://www.w3.org/2000/svg">
<path d="M18.9443 14.2246C18.0244 14.2246 17.2983 15.0153 17.2983 15.9997C17.2983 16.9841 18.0406 17.7748 18.9443 17.7748C19.8641 17.7748 20.5903 16.9841 20.5903 15.9997C20.5903 15.0153 19.8479 14.2246 18.9443 14.2246ZM13.0542 14.2246C12.1344 14.2246 11.4082 15.0153 11.4082 15.9997C11.4082 16.9841 12.1505 17.7748 13.0542 17.7748C13.974 17.7748 14.7002 16.9841 14.7002 15.9997C14.7163 15.0153 13.974 14.2246 13.0542 14.2246Z" fill="white"/>
<path d="M26.803 0H5.17921C3.35571 0 1.87109 1.48462 1.87109 3.30812V24.9319C1.87109 26.7554 3.35571 28.24 5.17921 28.24H23.4788L22.6235 25.2869L24.689 27.1911L26.6416 28.9823L30.1273 32V3.30812C30.1111 1.48462 28.6265 0 26.803 0ZM20.5741 20.8976C20.5741 20.8976 19.9931 20.2037 19.509 19.6067C21.623 19.0096 22.4298 17.7025 22.4298 17.7025C21.7682 18.1382 21.1389 18.4448 20.5741 18.6546C19.7672 18.9934 18.9926 19.2032 18.2342 19.3485C16.685 19.6389 15.2649 19.5582 14.0547 19.3323C13.1348 19.1548 12.3441 18.9128 11.6825 18.6384C11.3113 18.4932 10.9079 18.3157 10.5045 18.0898C10.4561 18.0575 10.4077 18.0414 10.3592 18.0091C10.327 17.993 10.3108 17.9768 10.2947 17.9768C10.0042 17.8154 9.84285 17.7025 9.84285 17.7025C9.84285 17.7025 10.6174 18.9773 12.6669 19.5905C12.1827 20.2037 11.5857 20.9138 11.5857 20.9138C8.01935 20.8008 6.66383 18.4771 6.66383 18.4771C6.66383 13.3293 8.98758 9.14979 8.98758 9.14979C11.3113 7.42311 13.506 7.47152 13.506 7.47152L13.6674 7.66517C10.7627 8.48816 9.43942 9.763 9.43942 9.763C9.43942 9.763 9.79444 9.56935 10.3915 9.31116C12.1182 8.55271 13.4899 8.35907 14.0547 8.29451C14.1515 8.27839 14.2322 8.26224 14.329 8.26224C15.3134 8.13314 16.4268 8.10087 17.5887 8.22997C19.1217 8.40747 20.7677 8.85932 22.446 9.763C22.446 9.763 21.1711 8.55271 18.4278 7.72971L18.6537 7.47152C18.6537 7.47152 20.8645 7.42311 23.1722 9.14979C23.1722 9.14979 25.4959 13.3293 25.4959 18.4771C25.4959 18.4609 24.1404 20.7847 20.5741 20.8976Z" fill="white"/>
</svg>
