<svg width="32" height="32" viewBox="0 0 32 32" fill="none" xmlns="http://www.w3.org/2000/svg">
<path d="M27.6667 1C28.5507 1 29.3986 1.35119 30.0237 1.97631C30.6488 2.60143 31 3.44928 31 4.33333V27.6667C31 28.5507 30.6488 29.3986 30.0237 30.0237C29.3986 30.6488 28.5507 31 27.6667 31H4.33333C3.44928 31 2.60143 30.6488 1.97631 30.0237C1.35119 29.3986 1 28.5507 1 27.6667V4.33333C1 3.44928 1.35119 2.60143 1.97631 1.97631C2.60143 1.35119 3.44928 1 4.33333 1H27.6667ZM26.8333 26.8333V18C26.8333 16.559 26.2609 15.177 25.2419 14.1581C24.223 13.1391 22.841 12.5667 21.4 12.5667C19.9833 12.5667 18.3333 13.4333 17.5333 14.7333V12.8833H12.8833V26.8333H17.5333V18.6167C17.5333 17.3333 18.5667 16.2833 19.85 16.2833C20.4688 16.2833 21.0623 16.5292 21.4999 16.9668C21.9375 17.4043 22.1833 17.9978 22.1833 18.6167V26.8333H26.8333ZM7.46667 10.2667C8.20927 10.2667 8.92146 9.97167 9.44657 9.44657C9.97167 8.92146 10.2667 8.20927 10.2667 7.46667C10.2667 5.91667 9.01667 4.65 7.46667 4.65C6.71964 4.65 6.00321 4.94675 5.47498 5.47498C4.94675 6.00321 4.65 6.71964 4.65 7.46667C4.65 9.01667 5.91667 10.2667 7.46667 10.2667ZM9.78333 26.8333V12.8833H5.16667V26.8333H9.78333Z" fill="white"/>
</svg>
