<svg width="200" height="30" viewBox="0 0 200 30" fill="none" xmlns="http://www.w3.org/2000/svg">
<path d="M18.7376 0.0927734H10.0039V26.1211H18.7376V0.0927734Z" fill="#7F61A0"/>
<path d="M35.881 0.158607C35.881 0.136011 35.881 0.113417 35.881 0.0908203H20.0146C20.0146 0.113417 20.0146 0.136011 20.0146 0.158607C20.0146 1.20091 20.2199 2.23301 20.6186 3.19597C21.0174 4.15894 21.6018 5.0339 22.3386 5.77092C23.0754 6.50794 23.9501 7.09259 24.9128 7.49146C25.8755 7.89033 26.9073 8.09563 27.9493 8.09563C28.9912 8.09563 30.023 7.89033 30.9857 7.49146C31.9484 7.09259 32.8231 6.50794 33.5599 5.77092C34.2967 5.0339 34.8811 4.15894 35.2799 3.19597C35.6786 2.23301 35.8839 1.20091 35.8839 0.158607H35.881Z" fill="#7F61A0"/>
<path d="M7.93461 15.9669H8.00238V0.0957031H7.93461C6.89262 0.0957031 5.86084 0.301002 4.89817 0.699875C3.93549 1.09875 3.06079 1.68338 2.32399 2.4204C1.5872 3.15742 1.00274 4.03239 0.603988 4.99535C0.205237 5.95832 0 6.99042 0 8.03272C0 9.07503 0.205237 10.1071 0.603988 11.0701C1.00274 12.0331 1.5872 12.908 2.32399 13.645C3.06079 14.3821 3.93549 14.9667 4.89817 15.3656C5.86084 15.7644 6.89262 15.9697 7.93461 15.9697V15.9669Z" fill="#604180"/>
<path d="M18.7376 27.2402H10.0039V29.9998H18.7376V27.2402Z" fill="#B7ACD4"/>
<path d="M31.4083 29.9599C33.8785 29.9599 35.881 27.9568 35.881 25.4858C35.881 23.0148 33.8785 21.0117 31.4083 21.0117C28.9381 21.0117 26.9355 23.0148 26.9355 25.4858C26.9355 27.9568 28.9381 29.9599 31.4083 29.9599Z" fill="#FFCA70"/>
<path d="M55.839 8.69727V15.4141C53.3909 15.0186 49.9093 16.0072 49.9093 19.9334V28.8646H43.9795V9.0927H49.9093V12.6093C50.7027 9.95985 53.3485 8.69727 55.839 8.69727Z" fill="#604180"/>
<path d="M68.0452 24.1108C69.666 24.1108 71.0468 23.4781 71.8375 22.6081L76.5785 25.3338C74.6414 28.02 71.7189 29.404 67.9662 29.404C61.209 29.404 57.0215 24.8593 57.0215 18.9701C57.0215 13.0809 61.2881 8.53613 67.5313 8.53613C73.3001 8.53613 77.5668 13.0018 77.5668 18.9701C77.5701 19.767 77.4906 20.5622 77.3296 21.3427H63.3071C64.0553 23.399 65.8738 24.1108 68.0452 24.1108ZM71.6793 16.9166C71.0468 14.6231 69.2679 13.7955 67.4918 13.7955C65.2328 13.7955 63.7391 14.9027 63.1856 16.9166H71.6793Z" fill="#604180"/>
<path d="M95.4636 22.9246C95.4636 27.4693 91.5104 29.4069 87.2466 29.4069C83.2934 29.4069 80.2918 27.9042 78.7529 24.704L83.8892 21.7806C84.4032 23.2833 85.51 24.1109 87.2466 24.1109C88.6585 24.1109 89.3785 23.6759 89.3785 22.885C89.3785 20.7101 79.6593 21.8569 79.6593 15.0214C79.6593 10.714 83.2934 8.53906 87.4019 8.53906C90.6012 8.53906 93.4475 9.95134 95.105 12.7759L90.0477 15.5016C89.483 14.4735 88.7037 13.7617 87.4019 13.7617C86.3741 13.7617 85.7416 14.1571 85.7416 14.8689C85.7444 17.1144 95.4636 15.6118 95.4636 22.9246Z" fill="#604180"/>
<path d="M97.2395 18.972C97.2317 16.8989 97.8391 14.8701 98.9848 13.1425C100.131 11.415 101.763 10.0664 103.676 9.26763C105.588 8.46885 107.695 8.25579 109.728 8.65544C111.762 9.05508 113.631 10.0494 115.099 11.5126C116.568 12.9758 117.569 14.8419 117.976 16.8746C118.383 18.9073 118.178 21.0152 117.387 22.9313C116.596 24.8474 115.254 26.4855 113.531 27.6381C111.808 28.7907 109.782 29.4059 107.71 29.4059C106.334 29.4214 104.969 29.1623 103.694 28.6439C102.419 28.1255 101.261 27.3582 100.286 26.3867C99.3111 25.4153 98.5396 24.2592 98.0165 22.9861C97.4935 21.713 97.2293 20.3484 97.2395 18.972ZM112.253 18.972C112.253 16.1672 110.277 14.3087 107.71 14.3087C105.143 14.3087 103.166 16.1672 103.166 18.972C103.166 21.7768 105.143 23.6354 107.71 23.6354C110.277 23.6354 112.253 21.7768 112.253 18.972Z" fill="#604180"/>
<path d="M121.538 0H127.468V28.8529H121.538V0Z" fill="#604180"/>
<path d="M150.498 9.09193V28.8639H144.568V26.994C143.501 28.4571 141.527 29.4062 138.921 29.4062C134.931 29.4062 131.531 26.5618 131.531 21.2149V9.06934H137.461V20.3337C137.461 22.7854 139.003 23.9293 140.897 23.9293C143.072 23.9293 144.568 22.6639 144.568 19.8592V9.06934L150.498 9.09193Z" fill="#604180"/>
<path d="M162.348 14.7833V21.7797C162.348 23.4745 163.811 23.6383 166.417 23.4745V28.8411C158.672 29.632 156.421 27.2989 156.421 21.7797V14.7833H153.262V9.09181H156.421V5.33514L162.351 3.55566V9.08898H166.42V14.7805L162.348 14.7833Z" fill="#604180"/>
<path d="M169.196 3.80515C169.196 3.10181 169.405 2.41427 169.795 1.82947C170.186 1.24467 170.741 0.788874 171.391 0.519719C172.04 0.250565 172.755 0.180141 173.445 0.317355C174.135 0.454569 174.768 0.793254 175.265 1.29059C175.762 1.78792 176.101 2.42156 176.238 3.11138C176.375 3.8012 176.305 4.51622 176.036 5.16602C175.767 5.81581 175.311 6.3712 174.726 6.76195C174.142 7.15271 173.454 7.36127 172.751 7.36127C171.811 7.35171 170.913 6.97398 170.248 6.30913C169.583 5.64429 169.206 4.74533 169.196 3.80515ZM169.789 9.1012H175.719V28.8731H169.789V9.1012Z" fill="#604180"/>
<path d="M179.06 18.972C179.052 16.8988 179.66 14.8698 180.805 13.1422C181.951 11.4146 183.584 10.0661 185.497 9.26736C187.409 8.46866 189.516 8.25577 191.55 8.65564C193.583 9.05551 195.453 10.0502 196.921 11.5136C198.389 12.977 199.39 14.8434 199.797 16.8763C200.204 18.9093 199.998 21.0172 199.206 22.9333C198.415 24.8493 197.072 26.4872 195.349 27.6394C193.626 28.7917 191.6 29.4065 189.527 29.4059C188.152 29.421 186.787 29.1617 185.512 28.6431C184.238 28.1245 183.08 27.3571 182.105 26.3857C181.131 25.4143 180.359 24.2584 179.837 22.9855C179.314 21.7126 179.05 20.3482 179.06 18.972ZM194.073 18.972C194.073 16.1672 192.097 14.3087 189.53 14.3087C186.963 14.3087 184.987 16.1672 184.987 18.972C184.987 21.7768 186.963 23.6354 189.53 23.6354C192.097 23.6354 194.073 21.7768 194.073 18.972Z" fill="#604180"/>
</svg>
