<svg width="577" height="585" xmlns="http://www.w3.org/2000/svg">

 <g>
  <title>Layer 1</title>
  <g stroke="null">

   <title stroke="null">Untitled-1</title>
   <path stroke="null" fill="#fff" d="m150.69906,219.96549l0.9189,0l0,-219.91036l-0.9189,0a109.97356,109.97356 0 1 0 0,219.96549l0,-0.05513z" class="cls-1"/>
   <rect stroke="null" fill="#7f61a0" height="360.64857" width="121.03707" y="0" x="179.40539" class="cls-2"/>
   <path stroke="null" fill="#7f61a0" d="m538.06915,0.9189c0,-0.31242 0,-0.60647 0,-0.9189l-219.91036,0c0,0.31242 0,0.60647 0,0.9189a109.97356,109.97356 0 1 0 219.96549,0l-0.05513,0z" class="cls-2"/>
   <path stroke="null" fill="#604180" d="m150.69906,219.96549l0.9189,0l0,-219.91036l-0.9189,0a109.97356,109.97356 0 1 0 0,219.96549l0,-0.05513z" class="cls-3"/>
   <rect stroke="null" fill="#b7acd4" height="38.26286" width="121.03707" y="376.15955" x="179.40539" class="cls-4"/>
   <circle stroke="null" fill="#ffca70" r="61.98879" cy="351.84554" cx="476.08038" class="cls-5"/>
   <path stroke="null" fill="#604180" d="m43.79462,508.77472l0,24.84697c-9.06032,-1.45186 -21.92488,2.18697 -21.92488,16.65041l0,33.08028l-21.86974,0l0,-73.16255l21.86974,0l0,13.01158c2.92209,-9.75868 12.71753,-14.42668 21.92488,-14.42668z" class="cls-3"/>
   <path stroke="null" fill="#604180" d="m88.93082,565.76469a19.0763,19.0763 0 0 0 14.02236,-5.51338l17.53255,10.08949c-7.14902,9.94246 -17.97362,15.05153 -31.84896,15.05153c-24.99399,0 -40.43145,-16.79743 -40.43145,-38.59366s15.78665,-38.59366 38.86933,-38.59366c21.33678,0 37.10505,16.54014 37.10505,38.59366a42.50816,42.50816 0 0 1 -0.88214,8.76627l-51.89929,0c2.77507,7.57171 9.46464,10.19975 17.53255,10.19975zm13.43427,-26.59287c-2.334,-8.47223 -8.9133,-11.54134 -15.4926,-11.54134c-8.3252,0 -13.87534,4.09828 -15.93367,11.54134l31.42627,0z" class="cls-3"/>
   <path stroke="null" fill="#604180" d="m190.32188,561.37237c0,16.79743 -14.61046,23.89131 -30.3971,23.89131c-14.70235,0 -25.72911,-5.51338 -31.40789,-17.38553l19.00278,-10.80623a12.00079,12.00079 0 0 0 12.42348,8.61925c5.25609,0 7.88413,-1.59888 7.88413,-4.52097c0,-8.03116 -35.94724,-3.80423 -35.94724,-29.07389c0,-15.93367 13.43427,-23.89131 28.63282,-23.89131c11.83539,0 22.34757,5.25609 28.4858,15.63962l-18.70874,10.08949c-2.03995,-3.80423 -4.96204,-6.43228 -9.79544,-6.43228c-3.80423,0 -6.13823,1.45186 -6.13823,4.09828c0.01838,8.28845 35.96562,2.73831 35.96562,29.77225z" class="cls-3"/>
   <path stroke="null" fill="#604180" d="m196.90118,546.76191a38.72231,38.72231 0 1 1 38.72231,38.59366a38.29961,38.29961 0 0 1 -38.72231,-38.59366zm55.51974,0c0,-10.36515 -7.35117,-17.2385 -16.79743,-17.2385s-16.79743,6.87335 -16.79743,17.2385s7.35117,17.2385 16.79743,17.2385s16.79743,-6.85497 16.79743,-17.2385z" class="cls-3"/>
   <path stroke="null" fill="#604180" d="m286.69577,476.63171l22.05352,0l0,106.59202l-22.05352,0l0,-106.59202z" class="cls-3"/>
   <path stroke="null" fill="#604180" d="m393.83912,510.18982l0,73.05229l-21.9065,0l0,-6.89173c-3.95126,5.40311 -11.2473,8.9133 -20.89571,8.9133c-14.70235,0 -27.32799,-10.51218 -27.32799,-30.25008l0,-44.82378l21.92488,0l0,41.6444c0,9.06032 5.69716,13.30562 12.71753,13.30562c8.03116,0 13.58129,-4.668 13.58129,-15.05153l0,-39.89849l21.9065,0z" class="cls-3"/>
   <path stroke="null" fill="#604180" d="m437.67049,531.26931l0,25.85775c0,6.28525 5.40311,6.87335 15.05153,6.28525l0,19.86655c-28.63282,2.92209 -36.95802,-5.69716 -36.95802,-26.1518l0,-25.85775l-11.68837,0l0,-21.07949l11.68837,0l0,-13.87534l21.9065,-6.5793l0,20.45464l15.05153,0l0,21.04273l-15.05153,0.03676z" class="cls-3"/>
   <path stroke="null" fill="#604180" d="m462.94015,490.65408a13.1586,13.1586 0 1 1 13.1586,13.1586a13.28725,13.28725 0 0 1 -13.1586,-13.1586zm2.20535,19.53574l21.86974,0l0,73.05229l-21.86974,0l0,-73.05229z" class="cls-3"/>
   <path stroke="null" fill="#604180" d="m499.47549,546.76191a38.72231,38.72231 0 1 1 38.72231,38.59366a38.29961,38.29961 0 0 1 -38.72231,-38.59366zm55.51974,0c0,-10.36515 -7.35117,-17.2385 -16.79743,-17.2385s-16.79743,6.87335 -16.79743,17.2385s7.35117,17.2385 16.79743,17.2385s16.81581,-6.85497 16.81581,-17.2385l-0.01838,0z" class="cls-3"/>
  </g>
 </g>
</svg>