<svg id="Layer_1" data-name="Layer 1" xmlns="http://www.w3.org/2000/svg" viewBox="0 0 841.89 595.28"><defs><style>.cls-1{fill:#fff;}.cls-2{fill:#7f61a0;}.cls-3{fill:#604180;}.cls-4{fill:#b7acd4;}.cls-5{fill:#ffca70;}</style></defs><title>Untitled-1</title><path class="cls-1" d="M346,258.08l.5,0V138.42l-.5,0a59.84,59.84,0,1,0,0,119.69Z"/><rect class="cls-2" x="361.62" y="138.39" width="65.86" height="196.24"/><path class="cls-2" d="M556.78,138.89c0-.17,0-.33,0-.5H437.12c0,.17,0,.33,0,.5a59.84,59.84,0,1,0,119.69,0Z"/><path class="cls-3" d="M346,258.08l.5,0V138.42l-.5,0a59.84,59.84,0,1,0,0,119.69Z"/><rect class="cls-4" x="361.62" y="343.07" width="65.86" height="20.82"/><circle class="cls-5" cx="523.05" cy="329.84" r="33.73"/><path class="cls-3" d="M287.83,415.23v13.52c-4.93-.79-11.93,1.19-11.93,9.06v18H264V416H275.9v7.08C277.49,417.77,282.82,415.23,287.83,415.23Z"/><path class="cls-3" d="M312.39,446.24a10.38,10.38,0,0,0,7.63-3l9.54,5.49c-3.89,5.41-9.78,8.19-17.33,8.19-13.6,0-22-9.14-22-21s8.59-21,21.15-21c11.61,0,20.19,9,20.19,21a23.13,23.13,0,0,1-.48,4.77H302.85C304.36,444.81,308,446.24,312.39,446.24Zm7.31-14.47c-1.27-4.61-4.85-6.28-8.43-6.28-4.53,0-7.55,2.23-8.67,6.28Z"/><path class="cls-3" d="M367.56,443.85c0,9.14-7.95,13-16.54,13-8,0-14-3-17.09-9.46l10.34-5.88a6.53,6.53,0,0,0,6.76,4.69c2.86,0,4.29-.87,4.29-2.46,0-4.37-19.56-2.07-19.56-15.82,0-8.67,7.31-13,15.58-13,6.44,0,12.16,2.86,15.5,8.51l-10.18,5.49c-1.11-2.07-2.7-3.5-5.33-3.5-2.07,0-3.34.79-3.34,2.23C348,432.16,367.56,429.14,367.56,443.85Z"/><path class="cls-3" d="M371.14,435.9a21.07,21.07,0,1,1,21.07,21A20.84,20.84,0,0,1,371.14,435.9Zm30.21,0c0-5.64-4-9.38-9.14-9.38s-9.14,3.74-9.14,9.38,4,9.38,9.14,9.38S401.35,441.55,401.35,435.9Z"/><path class="cls-3" d="M420,397.74H432v58H420Z"/><path class="cls-3" d="M478.3,416v39.75H466.38V452c-2.15,2.94-6.12,4.85-11.37,4.85-8,0-14.87-5.72-14.87-16.46V416h11.93v22.66c0,4.93,3.1,7.24,6.92,7.24,4.37,0,7.39-2.54,7.39-8.19V416Z"/><path class="cls-3" d="M502.15,427.47v14.07c0,3.42,2.94,3.74,8.19,3.42v10.81c-15.58,1.59-20.11-3.1-20.11-14.23V427.47h-6.36V416h6.36v-7.55l11.92-3.58V416h8.19v11.45Z"/><path class="cls-3" d="M515.9,405.37a7.16,7.16,0,1,1,7.16,7.16A7.23,7.23,0,0,1,515.9,405.37ZM517.1,416H529v39.75H517.1Z"/><path class="cls-3" d="M535.78,435.9a21.07,21.07,0,1,1,21.07,21A20.84,20.84,0,0,1,535.78,435.9Zm30.21,0c0-5.64-4-9.38-9.14-9.38s-9.14,3.74-9.14,9.38,4,9.38,9.14,9.38S566,441.55,566,435.9Z"/></svg>