<svg width="30" height="25" viewBox="0 0 30 25" fill="none" xmlns="http://www.w3.org/2000/svg">
<path d="M30 3.34467C28.8958 3.84659 27.7055 4.17642 26.4723 4.33417C27.7342 3.57412 28.7094 2.36952 29.1683 0.92112C27.978 1.63815 26.6587 2.14007 25.2677 2.42688C24.1348 1.19359 22.543 0.476562 20.7361 0.476562C17.3662 0.476562 14.6128 3.22995 14.6128 6.62866C14.6128 7.11624 14.6702 7.58948 14.7706 8.03403C9.66539 7.7759 5.1195 5.32367 2.09369 1.60947C1.5631 2.51292 1.26195 3.57412 1.26195 4.69268C1.26195 6.82943 2.33748 8.72238 4.00096 9.79792C2.98279 9.79792 2.03633 9.51111 1.20459 9.08089V9.12391C1.20459 12.1067 3.32696 14.602 6.13767 15.1613C5.23527 15.4082 4.2879 15.4426 3.36998 15.2617C3.75947 16.4842 4.52228 17.5539 5.55117 18.3204C6.58006 19.0869 7.8233 19.5118 9.10612 19.5352C6.93159 21.2567 4.23613 22.1872 1.46272 22.1738C0.975143 22.1738 0.487572 22.1451 0 22.0878C2.72467 23.8373 5.96558 24.8555 9.43595 24.8555C20.7361 24.8555 26.9455 15.4768 26.9455 7.34569C26.9455 7.07322 26.9455 6.81509 26.9312 6.54262C28.1358 5.68218 29.1683 4.5923 30 3.34467Z" fill="white"/>
</svg>
